<svg width="86" height="30" viewBox="0 0 86 30" fill="none" xmlns="http://www.w3.org/2000/svg">
<path d="M0 0C2.23662 0 4.04977 1.81824 4.04977 4.06116V9.375C5.09487 7.69737 6.89114 6.44737 9.27527 6.44737C12.3779 6.44737 14.4028 8.05921 14.4028 11.4474V23.2895H10.353V12.8947C10.353 10.8882 9.56921 9.93421 7.90358 9.93421C6.04199 9.93421 4.04977 11.8092 4.04977 16.2829V23.2895H0V0ZM20.5801 11.8421L17.1509 11.0526C17.6734 8.32237 20.0575 6.44737 23.4215 6.44737C27.3406 6.44737 30.3453 8.09211 30.3453 13.3882V23.2895H27.014L26.5894 21.1842C25.4463 22.5987 23.8787 23.5526 21.5272 23.5526C18.7185 23.5526 16.5303 21.8092 16.5303 18.5197C16.5303 15.2303 19.4044 13.0921 23.5521 13.0921H26.2955V12.3684C26.2955 10.5263 24.9238 9.93421 23.4215 9.93421C22.2784 9.93421 21.1026 10.2961 20.5801 11.8421ZM20.7761 18.4539C20.7761 19.2434 21.3313 20.0658 22.4743 20.0658C24.3359 20.0658 26.2955 18.7829 26.2955 16.6447V16.3158H23.5848C21.8538 16.3158 20.7761 16.9737 20.7761 18.4539ZM36.8818 23.2895H32.832V6.71053H36.8818V9.40789C38.0575 7.4671 39.8865 6.44737 41.7481 6.44737C42.4666 6.44737 43.0871 6.57895 43.7403 6.77632L42.9891 10.5592C42.4992 10.2632 41.9767 10.0987 41.2908 10.0987C38.9393 10.0987 36.8818 12.0395 36.8818 17.4013V23.2895ZM49.2644 23.2895H45.2146V6.71053H49.2644V9.40789C50.4401 7.4671 52.2691 6.44737 54.1306 6.44737C54.8491 6.44737 55.4697 6.57895 56.1229 6.77632L55.3717 10.5592C54.8818 10.2632 54.3593 10.0987 53.6734 10.0987C51.3219 10.0987 49.2644 12.0395 49.2644 17.4013V23.2895ZM56.4541 6.71053H56.7252C59.0153 6.71053 61.0627 8.14188 61.8548 10.2967L64.3577 17.1053L66.6759 10.3976C67.4387 8.19055 69.5122 6.71053 71.8416 6.71053H72L64.8211 26.4002C64.0328 28.5621 61.9818 30 59.6864 30H59.5894L62.4308 22.2368L56.4541 6.71053Z" fill="#232E50"/>
<path d="M80.0079 11C83.3193 11 86 13.6766 86 17C86 20.3233 83.3193 23 80.0079 23C78.8095 23 77.6899 22.6407 76.7438 22.0299C75.8922 22.6048 74.9777 22.5868 74.4573 22.497C74.2996 22.479 74.2681 22.2455 74.3942 22.1557C74.9146 21.7784 75.1827 21.2395 75.3403 20.7545C74.5046 19.7305 74 18.4192 74 16.982C74 13.6766 76.6965 11 80.0079 11Z" fill="#232E50"/>
<path d="M80 18C80.5523 18 81 17.5523 81 17C81 16.4477 80.5523 16 80 16C79.4477 16 79 16.4477 79 17C79 17.5523 79.4477 18 80 18Z" fill="white"/>
<path d="M82.5 18C83.0523 18 83.5 17.5523 83.5 17C83.5 16.4477 83.0523 16 82.5 16C81.9477 16 81.5 16.4477 81.5 17C81.5 17.5523 81.9477 18 82.5 18Z" fill="white"/>
<path d="M77.5 18C78.0523 18 78.5 17.5523 78.5 17C78.5 16.4477 78.0523 16 77.5 16C76.9477 16 76.5 16.4477 76.5 17C76.5 17.5523 76.9477 18 77.5 18Z" fill="white"/>
</svg>
